<svg data-name="Layer 1" viewBox="0 0 32 32" xmlns="http://www.w3.org/2000/svg"><path d="M6 3v26h20V3H6Zm19 1v4H7V4h18ZM7 28V9h18v19H7Z" fill="#ff9100" class="fill-000000"></path><circle cx="10" cy="6" r="1" fill="#ff9100" class="fill-000000"></circle><circle cx="14" cy="6" r="1" fill="#ff9100" class="fill-000000"></circle><circle cx="18" cy="6" r="1" fill="#ff9100" class="fill-000000"></circle><circle cx="22" cy="6" r="1" fill="#ff9100" class="fill-000000"></circle><path d="M16 11a7 7 0 1 0 7 7 7 7 0 0 0-7-7Zm0 13a6 6 0 1 1 6-6 6 6 0 0 1-6 6Z" fill="#ff9100" class="fill-000000"></path><path d="M16 14a4 4 0 1 0 4 4 4 4 0 0 0-4-4Zm0 7a3 3 0 1 1 3-3 3 3 0 0 1-3 3Z" fill="#ff9100" class="fill-000000"></path></svg>